<svg width="52" height="52" viewBox="0 0 52 52" fill="none" xmlns="http://www.w3.org/2000/svg">
<path d="M49.0259 1.02872C46.1139 0.376545 43.1391 0.0460105 40.1549 0.0430577C37.3367 -0.135882 34.5108 0.244077 31.8399 1.16108C29.169 2.07809 26.7058 3.51406 24.5918 5.3864C21.8077 8.17047 19.0496 10.9459 16.3174 13.7127C13.1788 13.3755 5.73447 13.1939 0.754274 18.226C0.271166 18.712 0 19.3694 0 20.0546C0 20.7399 0.271166 21.3973 0.754274 21.8833L30.0648 51.2457C30.5508 51.7288 31.2082 52 31.8935 52C32.5787 52 33.2362 51.7288 33.7222 51.2457C38.7802 46.058 38.6245 38.7434 38.3133 35.6826L46.6396 27.3823C54.9139 19.1079 51.1529 3.5707 50.9972 2.92224C50.8775 2.45439 50.6295 2.02927 50.2812 1.69474C49.9329 1.3602 49.4982 1.12954 49.0259 1.02872ZM42.9044 23.7249L33.6703 32.9072C33.3712 33.2092 33.151 33.58 33.0288 33.987C32.9067 34.3941 32.8865 34.8249 32.9699 35.2417C33.5303 38.7117 33.0426 42.2701 31.5693 45.4614L6.48669 20.327C9.72862 18.8349 13.3527 18.3819 16.8621 19.0301C17.2773 19.0841 17.6994 19.0369 18.0924 18.8923C18.4854 18.7478 18.8375 18.5103 19.1188 18.2C19.1188 18.2 22.7502 14.4389 28.2232 8.96591C31.5885 6.26342 35.8493 4.9296 40.1549 5.23077C42.1802 5.2408 44.2013 5.41429 46.1986 5.74954C46.8211 9.45875 47.8068 18.8226 42.9044 23.7249Z" fill="#E5901F"/>
<path d="M35.5637 21.5722C38.4288 21.5722 40.7514 19.2496 40.7514 16.3845C40.7514 13.5194 38.4288 11.1968 35.5637 11.1968C32.6986 11.1968 30.376 13.5194 30.376 16.3845C30.376 19.2496 32.6986 21.5722 35.5637 21.5722Z" fill="#E5901F"/>
<path d="M7.73165 36.3569C2.54395 38.9508 2.54395 49.3262 2.54395 49.3262C7.34535 49.1892 11.9419 47.3506 15.5132 44.1385L7.73165 36.3569Z" fill="#E5901F"/>
</svg>
