<svg width="52" height="52" viewBox="0 0 52 52" fill="none" xmlns="http://www.w3.org/2000/svg">
<path d="M26.0096 30.885C27.3027 30.885 28.5429 30.3713 29.4572 29.457C30.3716 28.5426 30.8853 27.3025 30.8853 26.0094C30.8853 24.7163 30.3716 23.4762 29.4572 22.5618C28.5429 21.6475 27.3027 21.1338 26.0096 21.1338C24.7166 21.1338 23.4764 21.6475 22.5621 22.5618C21.6477 23.4762 21.134 24.7163 21.134 26.0094C21.134 27.3025 21.6477 28.5426 22.5621 29.457C23.4764 30.3713 24.7166 30.885 26.0096 30.885V30.885Z" fill="#FFF9F1"/>
<path d="M9.75757 26.0098C9.75757 21.6995 11.4698 17.5658 14.5177 14.5179C17.5655 11.4701 21.6993 9.75781 26.0096 9.75781C30.3199 9.75781 34.4537 11.4701 37.5015 14.5179C40.5494 17.5658 42.2616 21.6995 42.2616 26.0098C42.2616 30.3202 40.5494 34.4539 37.5015 37.5018C34.4537 40.5496 30.3199 42.2619 26.0096 42.2619C21.6993 42.2619 17.5655 40.5496 14.5177 37.5018C11.4698 34.4539 9.75757 30.3202 9.75757 26.0098V26.0098ZM26.0096 14.6334C24.5156 14.6334 23.0363 14.9277 21.656 15.4994C20.2758 16.0711 19.0217 16.9091 17.9653 17.9655C16.9089 19.0219 16.0709 20.276 15.4992 21.6563C14.9274 23.0365 14.6332 24.5159 14.6332 26.0098C14.6332 27.5038 14.9274 28.9832 15.4992 30.3634C16.0709 31.7437 16.9089 32.9978 17.9653 34.0542C19.0217 35.1106 20.2758 35.9486 21.656 36.5203C23.0363 37.092 24.5156 37.3863 26.0096 37.3863C29.0268 37.3863 31.9205 36.1877 34.0539 34.0542C36.1874 31.9207 37.386 29.0271 37.386 26.0098C37.386 22.9926 36.1874 20.099 34.0539 17.9655C31.9205 15.832 29.0268 14.6334 26.0096 14.6334Z" fill="#FFF9F1"/>
<path d="M0 26C0 19.1044 2.73928 12.4912 7.61522 7.61522C12.4912 2.73928 19.1044 0 26 0C32.8956 0 39.5088 2.73928 44.3848 7.61522C49.2607 12.4912 52 19.1044 52 26C52 32.8956 49.2607 39.5088 44.3848 44.3848C39.5088 49.2607 32.8956 52 26 52C19.1044 52 12.4912 49.2607 7.61522 44.3848C2.73928 39.5088 0 32.8956 0 26ZM26.0033 4.87561C23.198 4.8264 20.411 5.33642 17.805 6.37593C15.1989 7.41543 12.826 8.96359 10.8248 10.93C8.82351 12.8965 7.23397 15.2419 6.14891 17.8293C5.06385 20.4167 4.50502 23.1943 4.50502 26C4.50502 28.8057 5.06385 31.5833 6.14891 34.1707C7.23397 36.7581 8.82351 39.1035 10.8248 41.07C12.826 43.0364 15.1989 44.5846 17.805 45.6241C20.411 46.6636 23.198 47.1736 26.0033 47.1244C31.5416 47.0272 36.8203 44.7589 40.7026 40.8079C44.5849 36.8569 46.7603 31.5392 46.7603 26C46.7603 20.4608 44.5849 15.1431 40.7026 11.1921C36.8203 7.24109 31.5416 4.97277 26.0033 4.87561Z" fill="#FFF9F1"/>
</svg>
