<svg xmlns="http://www.w3.org/2000/svg" viewBox="0 0 39.16 39.16"><defs><style>.cls-1{fill:#e59020;}.cls-2{fill:#0d3951;}.cls-3{fill:#2681c6;}.cls-4{fill:#2c6b6b;}</style></defs><g id="Layer_2" data-name="Layer 2"><g id="Layer_1-2" data-name="Layer 1"><g id="logo"><rect class="cls-1" x="8.52" y="10.08" width="6.2" height="13.7" rx="1.74" transform="translate(-8.57 13.17) rotate(-45)"/><rect class="cls-1" x="3.22" y="15.38" width="6.2" height="13.7" rx="1.74" transform="translate(-13.87 10.98) rotate(-45)"/><rect class="cls-2" x="13.83" y="-0.54" width="6.2" height="13.7" rx="1.74" transform="translate(9.42 -10.12) rotate(45)"/><rect class="cls-2" x="19.13" y="4.77" width="6.2" height="13.7" rx="1.74" transform="translate(14.73 -12.32) rotate(45)"/><rect class="cls-3" x="19.13" y="26" width="6.2" height="13.7" rx="1.74" transform="translate(29.74 -6.1) rotate(45)"/><rect class="cls-3" x="13.83" y="20.69" width="6.2" height="13.7" rx="1.74" transform="translate(24.43 -3.9) rotate(45)"/><rect class="cls-4" x="24.44" y="15.38" width="6.2" height="13.7" rx="1.74" transform="translate(-7.65 25.98) rotate(-45)"/><rect class="cls-4" x="29.75" y="10.08" width="6.2" height="13.7" rx="1.74" transform="translate(-2.35 28.18) rotate(-45)"/></g></g></g></svg>