<svg xmlns="http://www.w3.org/2000/svg" viewBox="0 0 247.56 68.9"><defs><style>.cls-1{fill:#2c6b6b;}.cls-2{fill:#e5901f;}.cls-3{fill:#1a81c6;}.cls-4{fill:#0f3951;}</style></defs><g id="Layer_2" data-name="Layer 2"><g id="Layer_1-2" data-name="Layer 1"><path class="cls-1" d="M130.8,17.87l-6.54,6.56a2.52,2.52,0,0,1,0,2.44l12.5,12.53a4.06,4.06,0,0,0,5.74,0h0l4.9-4.9Z"/><path class="cls-1" d="M120.82,27.86l-6.54,6.56,6.31,6.32a2.09,2.09,0,0,1,.43,0,2.52,2.52,0,0,1,2.53,2.52,2.18,2.18,0,0,1,0,.44L130.87,51l4.61-4.61a4.06,4.06,0,0,0,0-5.75L122.87,28a2.47,2.47,0,0,1-2-.18Z"/><path class="cls-2" d="M105.2,41l6.54-6.55-6.59-6.6a2.47,2.47,0,0,1-1.19.3,2.54,2.54,0,0,1-2.53-2.54,2.45,2.45,0,0,1,.3-1.19l-6.59-6.6-5.43,5.46a3.31,3.31,0,0,0,0,4.66l13,13.06a2.51,2.51,0,0,1,2.46,0Z"/><path class="cls-2" d="M101.57,42.42,89,29.79a4.07,4.07,0,0,0-5.74,0h0l-4.6,4.61L95.22,51l6.54-6.55a2.48,2.48,0,0,1-.19-2.06Z"/><path class="cls-3" d="M120.58,45.72,108.09,58.24a4.07,4.07,0,0,0,0,5.76L113,68.9l16.59-16.63-7-7a2.49,2.49,0,0,1-2,.49Z"/><path class="cls-3" d="M119,41.7l-6-6-6.7,6.71a2.52,2.52,0,0,1-3.19,3.19l-6.7,6.71,4.6,4.61a4.06,4.06,0,0,0,5.74,0h0L119,44.74a2.54,2.54,0,0,1,0-3.05Z"/><path class="cls-4" d="M106.33,26.52,113,33.17l6.7-6.7A2.53,2.53,0,0,1,122,23.11a2.39,2.39,0,0,1,.83.15l6.69-6.71-4.89-4.9a4,4,0,0,0-5.73,0h0L106.18,24.43a2.49,2.49,0,0,1,.15,2.1Z"/><path class="cls-4" d="M104.77,23.25l12.87-12.89a4.06,4.06,0,0,0,0-5.75L113,0,96.44,16.62l6.64,6.65a2.51,2.51,0,0,1,1.69,0Z"/><path class="cls-4" d="M38.57,53.8a1.88,1.88,0,0,0-.64-.44,2,2,0,0,0-.8-.16,1.93,1.93,0,0,0-1.43.6,2,2,0,0,0-.58,1.48,2,2,0,0,0,.58,1.47,1.91,1.91,0,0,0,1.43.58,2,2,0,0,0,2-2,2.09,2.09,0,0,0-.15-.82A1.93,1.93,0,0,0,38.57,53.8Z"/><path class="cls-4" d="M43.48,53.2a1.85,1.85,0,0,0-1.43.6,2,2,0,0,0-.57,1.48,2,2,0,0,0,.57,1.47,1.89,1.89,0,0,0,1.43.58,1.91,1.91,0,0,0,1.45-.58,2.05,2.05,0,0,0,.58-1.47,2.08,2.08,0,0,0-.58-1.48A1.93,1.93,0,0,0,43.48,53.2Z"/><path class="cls-4" d="M49.4,25.8a1.91,1.91,0,0,0,1.42-.59,2,2,0,0,0,.57-1.47A2,2,0,0,0,48,22.25h0a2,2,0,0,0-.57,1.48A2,2,0,0,0,48,25.21,1.89,1.89,0,0,0,49.4,25.8Z"/><path class="cls-4" d="M53.2,19.51a2,2,0,0,0,1.87-1.25,2.22,2.22,0,0,0,.15-.8A2,2,0,0,0,54.64,16a1.91,1.91,0,0,0-1.44-.6,1.88,1.88,0,0,0-.78.16,2,2,0,0,0-.63.43,2.23,2.23,0,0,0-.42.67,2.1,2.1,0,0,0-.16.82,2,2,0,0,0,.58,1.46A1.82,1.82,0,0,0,53.2,19.51Z"/><path class="cls-4" d="M57,21.67a1.88,1.88,0,0,0-1.43.59A2,2,0,0,0,55,23.74a2,2,0,0,0,.57,1.47A1.88,1.88,0,0,0,57,25.8a2,2,0,0,0,2-2.06,2.09,2.09,0,0,0-.58-1.48A1.94,1.94,0,0,0,57,21.67Z"/><path class="cls-4" d="M54,44.38H42.18v-12H39v12H11.65l0-.49c0-.25,0-.53,0-.82l0-1.87c0-.32,0-.59,0-.82s0-.46,0-.92,0-1,0-1.57-.05-1.28-.06-1.92,0-1.32-.06-1.88,0-1.11,0-1.53V32.4H8.33c0,.3,0,.61,0,.93,0,.56,0,1.14.07,1.73,0,.82.06,1.66.07,2.51s0,1.76,0,2.59c0,1.21,0,2.45-.1,3.69S8,49.28,5.78,52.25a7,7,0,0,1-2.57,1.93A9.35,9.35,0,0,1,0,55v3.37a12,12,0,0,0,4.35-1,10.63,10.63,0,0,0,3.46-2.48,13,13,0,0,0,2.32-3.62,23,23,0,0,0,1.4-4.5l-.32.94H55.58a1.57,1.57,0,0,0,1.16-.48,2.33,2.33,0,0,0,.44-1.4V32.4H54Z"/><path class="cls-4" d="M65.71,14.76a1.08,1.08,0,0,1-.84-.4,1.26,1.26,0,0,1-.27-.77,1.41,1.41,0,0,1,.29-.82,1.13,1.13,0,0,1,1-.39l2.5,0V10.56h-2.5a2.84,2.84,0,0,0-1.22.25,2.54,2.54,0,0,0-.88.68,3.21,3.21,0,0,0-.53,1A3.55,3.55,0,0,0,63,13.59a5.12,5.12,0,0,0,0,.56,2,2,0,0,0,.14.53l0,.08h-.91V16.6h6.2V14.76Z"/><rect class="cls-4" x="64.32" y="21.76" width="3.22" height="25.9"/><g id="Layer_2-2" data-name="Layer 2"><g id="Layer_1-2-2" data-name="Layer 1-2"><path class="cls-4" d="M153.63,51.79h3.9l3.81-9h13.52l3.71,9h3.9l-14.23-33.3Zm9.09-12.29,5.42-12.72,5.34,12.72Z"/><path class="cls-4" d="M212.8,31.54a7,7,0,0,0-5.67,2.76V17.06h-3.42V51.79h3.42V41.45c0-1.43.1-3.77,1.43-5.34A4.33,4.33,0,0,1,212,34.59,3.88,3.88,0,0,1,215.28,36a5.81,5.81,0,0,1,.9,3.62V51.79h3.43V39.54c0-2.19-.14-3.81-1.14-5.29A6.73,6.73,0,0,0,212.8,31.54Z"/><rect class="cls-4" x="226.41" y="32.02" width="3.43" height="19.76"/><path class="cls-4" d="M228.12,22.11a2.43,2.43,0,1,0,2.43,2.43A2.43,2.43,0,0,0,228.12,22.11Z"/><path class="cls-4" d="M244.52,31.54A5.52,5.52,0,0,0,240,34.16V32h-3.43V51.79H240V41.35c0-3.24.57-4.57,1.14-5.33A3.34,3.34,0,0,1,244,34.78a3.5,3.5,0,0,1,2,.67l1.62-3.1A7.19,7.19,0,0,0,244.52,31.54Z"/><path class="cls-4" d="M195.28,47.21a2.28,2.28,0,0,1-2.09,1.13,1.5,1.5,0,0,1-1.34-1,14,14,0,0,1-.36-3.25V34.74h3.43V31.6h-3.43V24.46h-3.42V31.6H186v3.14h2.1v8.84a15.45,15.45,0,0,0,.47,4.81,5.09,5.09,0,0,0,4.3,3.42,4.87,4.87,0,0,0,.54,0,5.78,5.78,0,0,0,4.56-2.37Z"/></g></g></g></g></svg>