<svg xmlns="http://www.w3.org/2000/svg" viewBox="0 0 702.38 703.65"><defs><style>.cls-1{fill:#fff;}</style></defs><g id="Layer_2" data-name="Layer 2"><g id="Layer_1-2" data-name="Layer 1"><path class="cls-1" d="M532.91,182.5l-66.83,66.95a25.89,25.89,0,0,1,0,25L593.76,402.36a41.4,41.4,0,0,0,58.63,0l50-50.08Z"/><path class="cls-1" d="M431,284.58l-66.84,66.95,64.44,64.55a26.68,26.68,0,0,1,4.41-.4A25.7,25.7,0,0,1,458.43,446l75.22,75.35,47-47.07a41.6,41.6,0,0,0,0-58.76L451.8,286.4A25.62,25.62,0,0,1,431,284.58Z"/><path class="cls-1" d="M271.42,419l66.79-66.91L271,284.73a25.85,25.85,0,0,1-35-35l-67.26-67.39L113.2,238a33.73,33.73,0,0,0,0,47.64L246.27,418.9a25.75,25.75,0,0,1,25.15.12Z"/><path class="cls-1" d="M234.32,433.21,105.63,304.28a41.4,41.4,0,0,0-58.63,0L0,351.37,169.48,521.15l66.79-66.91a25.75,25.75,0,0,1-2-21Z"/><path class="cls-1" d="M428.53,467,300.93,594.81a41.61,41.61,0,0,0,0,58.77l50,50.07L520.38,533.87,448.7,462.06A25.34,25.34,0,0,1,428.53,467Z"/><path class="cls-1" d="M412.54,425.84l-60.9-61-68.42,68.54a25.78,25.78,0,0,1-32.63,32.7l-68.42,68.54,47,47.08a41.39,41.39,0,0,0,58.63,0L412.32,457a25.75,25.75,0,0,1,.22-31.11Z"/><path class="cls-1" d="M282.94,270.89l67.8,67.93,68.34-68.47a25.82,25.82,0,0,1,24.4-34.27,25.65,25.65,0,0,1,8.39,1.42L520.21,169l-50-50.08a41.42,41.42,0,0,0-58.64,0L281.34,249.44a25.73,25.73,0,0,1,1.6,21.45Z"/><path class="cls-1" d="M267.06,237.48,398.47,105.84a41.63,41.63,0,0,0,0-58.77L351.48,0,182,169.78l67.8,67.92a25.42,25.42,0,0,1,17.25-.22Z"/></g></g></svg>